<?xml version="1.0" encoding="UTF-8"?>
<svg version="1.1" xmlns="http://www.w3.org/2000/svg" width="512" height="512">
<path d="M0 0 C2.41677079 -0.00407418 4.83353972 -0.00942076 7.25030518 -0.01593018 C13.08931144 -0.0281049 18.92818713 -0.02644057 24.76719713 -0.01769225 C29.51967342 -0.01087131 34.27211737 -0.01001785 39.02459717 -0.0132637 C40.0455778 -0.01395325 40.0455778 -0.01395325 41.08718431 -0.01465673 C42.47062954 -0.01561607 43.85407477 -0.01658871 45.23751998 -0.0175745 C58.16006267 -0.02609549 71.08254115 -0.01634628 84.00507331 -0.0001734 C95.05354452 0.01322678 106.10192112 0.01089775 117.15039062 -0.00292969 C130.03189712 -0.01904405 142.91334757 -0.02527182 155.79486275 -0.0160929 C157.1727511 -0.01513741 158.55063946 -0.0141943 159.92852783 -0.0132637 C160.60618458 -0.01280088 161.28384133 -0.01233805 161.98203313 -0.0118612 C166.71970507 -0.0092888 171.45734097 -0.01360414 176.19500732 -0.02070236 C182.59085256 -0.02942927 188.9865208 -0.02324636 195.38234711 -0.00601959 C197.71623187 -0.00208515 200.05013177 -0.00313592 202.38401031 -0.00980759 C218.75448614 -0.05225583 235.00978522 0.51178055 250.6015625 6.07568359 C251.3325415 6.32914551 252.06352051 6.58260742 252.81665039 6.84375 C269.70374178 12.91138258 283.4411418 22.07580524 296.4765625 34.38818359 C297.30027344 35.13583984 298.12398438 35.88349609 298.97265625 36.65380859 C319.2493075 55.76004471 331.70911326 85.24565538 332.75330734 112.90414429 C332.90179302 119.32961931 332.88277213 125.75439598 332.86474609 132.18115234 C332.86881931 134.63880648 332.87416537 137.09645878 332.88067627 139.55410767 C332.89286052 145.49651571 332.89118148 151.43881896 332.88243835 157.38122392 C332.87562195 162.21716125 332.87476202 167.05306679 332.8780098 171.88900757 C332.8784695 172.58118698 332.87892919 173.2733664 332.87940282 173.98652095 C332.88036214 175.39332144 332.88133479 176.80012193 332.8823206 178.20692241 C332.89084488 191.35261588 332.88108712 204.49824625 332.8649195 217.64392936 C332.85151902 228.88716284 332.85384795 240.13030335 332.86767578 251.37353516 C332.88378423 264.47696235 332.89002119 277.58033446 332.88083899 290.68377018 C332.87988349 292.08496665 332.87894038 293.48616313 332.8780098 294.88735962 C332.87754697 295.57650851 332.87708414 296.2656574 332.87660729 296.97568959 C332.87403314 301.79747652 332.87835411 306.61922807 332.88544846 311.44100952 C332.89481384 317.94844811 332.88800541 324.45575349 332.87076569 330.96317673 C332.86682742 333.33940722 332.86788875 335.71565258 332.87455368 338.09187698 C332.91576075 354.28680581 332.23322207 369.94582638 326.8515625 385.38818359 C326.59995361 386.12182129 326.34834473 386.85545898 326.08911133 387.61132812 C321.37315279 400.7575718 314.42589379 412.67565623 305.4765625 423.38818359 C304.65671875 424.37173828 303.836875 425.35529297 302.9921875 426.36865234 C283.92129407 448.52243456 256.59072642 463.12257452 227.4765625 466.38818359 C219.13586354 466.92282153 210.767533 466.79936474 202.4140625 466.77636719 C199.91552502 466.78043948 197.41698934 466.78578502 194.91845703 466.79229736 C188.87262292 466.80449088 182.82694429 466.80279762 176.78111649 466.79405944 C171.86171811 466.78724743 166.94235098 466.78638125 162.02294922 466.78963089 C160.96739161 466.79032044 160.96739161 466.79032044 159.89050961 466.79102392 C158.46035384 466.79198322 157.03019809 466.79295586 155.60004234 466.79394169 C142.23119809 466.80246917 128.86241585 466.79270314 115.49358177 466.77654059 C104.055586 466.76313982 92.61768162 466.76546866 81.1796875 466.77929688 C67.8543396 466.79539962 54.52904585 466.80164544 41.20368958 466.79246008 C39.77918499 466.79150457 38.35468039 466.79056146 36.93017578 466.78963089 C35.87921423 466.78893665 35.87921423 466.78893665 34.80702114 466.78822839 C29.90111921 466.78565253 24.99525202 466.78997894 20.08935547 466.79706955 C13.47030666 466.80642716 6.85140236 466.79963909 0.23236084 466.78238678 C-2.18621538 466.77844482 -4.6048062 466.77951632 -7.02337646 466.78617477 C-43.67160285 466.87771083 -73.93036189 456.16718546 -100.5234375 430.38818359 C-114.236341 416.72761942 -123.85400489 399.08598477 -129.3984375 380.63818359 C-129.68521362 379.68419678 -129.68521362 379.68419678 -129.9777832 378.7109375 C-133.99190912 364.29069577 -133.82121979 349.94036036 -133.81396484 335.09692383 C-133.81995702 332.64472755 -133.82676414 330.19253315 -133.83432007 327.74034119 C-133.85009492 321.79507035 -133.85642548 315.84983686 -133.85754482 309.90454935 C-133.85849978 305.06425528 -133.86263226 300.22397414 -133.86894608 295.38368416 C-133.88653468 281.61673962 -133.89578884 267.84982609 -133.89428513 254.08287024 C-133.89420522 253.34275206 -133.8941253 252.60263389 -133.89404297 251.84008789 C-133.89396121 251.0990507 -133.89387945 250.3580135 -133.89379521 249.59452064 C-133.89298329 237.60046471 -133.91210341 225.60653465 -133.9403197 213.61251508 C-133.96916021 201.25418243 -133.98285385 188.89591094 -133.98113215 176.53754383 C-133.98047202 169.61657801 -133.98579695 162.6957441 -134.00748825 155.77480888 C-134.0277832 149.25837217 -134.02691322 142.74214076 -134.01245499 136.22568703 C-134.01038055 133.8491004 -134.0149851 131.4724959 -134.0271759 129.09593964 C-134.20182258 92.65670961 -124.222909 61.14703227 -98.3359375 34.76318359 C-84.87005101 21.4335881 -69.52687645 12.29187929 -51.6484375 6.07568359 C-51.00293945 5.84526367 -50.35744141 5.61484375 -49.69238281 5.37744141 C-33.50260934 0.08955856 -16.84141551 -0.04814315 0 0 Z " fill="#26E54D" transform="translate(156.5234375,22.61181640625)"/>
<path d="M0 0 C0.71355652 -0.00173218 1.42711304 -0.00346436 2.16229248 -0.00524902 C15.97554028 0.00934906 28.85499711 2.036683 42.25 5.4375 C43.72063518 5.77786126 45.19193162 6.11538602 46.6640625 6.44921875 C55.07243433 8.47853048 62.53380594 11.57049281 70.25 15.4375 C71.56421485 16.06696428 72.8793608 16.69448738 74.1953125 17.3203125 C112.81349508 35.87763895 143.50667061 69.92450064 157.75 110.4375 C158.63257592 113.09055203 159.45324826 115.75757824 160.25 118.4375 C160.63671875 119.69691406 161.0234375 120.95632812 161.421875 122.25390625 C172.41398085 160.44749142 167.80073248 206.30093686 149.25 241.4375 C140.66445465 256.93559708 130.44845487 270.62069027 118.25 283.4375 C117.37794922 284.38882813 117.37794922 284.38882813 116.48828125 285.359375 C94.2685795 308.86636426 61.65733417 323.59697357 30.25 329.4375 C29.16203125 329.64246094 28.0740625 329.84742188 26.953125 330.05859375 C5.54021662 333.39000117 -16.73592635 332.63655014 -37.75 327.4375 C-38.50522949 327.25558105 -39.26045898 327.07366211 -40.03857422 326.88623047 C-49.3399337 324.58403599 -57.96744658 321.27178526 -66.60058594 317.11621094 C-67.3021582 316.78395508 -68.00373047 316.45169922 -68.7265625 316.109375 C-69.33580566 315.8112793 -69.94504883 315.51318359 -70.57275391 315.20605469 C-76.42984898 313.13853559 -81.07605257 313.43443085 -87 315.02734375 C-87.68310242 315.20687592 -88.36620483 315.38640808 -89.07000732 315.57138062 C-91.30012053 316.16038951 -93.52482638 316.76762358 -95.75 317.375 C-97.30856177 317.79000056 -98.86748702 318.20363824 -100.42675781 318.6159668 C-103.627875 319.46379597 -106.827202 320.31795041 -110.02539062 321.17675781 C-114.48417962 322.37092156 -118.95076213 323.53262039 -123.421875 324.6796875 C-124.45290344 324.94420464 -124.45290344 324.94420464 -125.50476074 325.21406555 C-126.85420289 325.5599703 -128.20368924 325.90570271 -129.55322266 326.25125122 C-132.61440707 327.03550217 -135.67455829 327.82371221 -138.734375 328.61328125 C-139.87197266 328.9067041 -141.00957031 329.20012695 -142.18164062 329.50244141 C-144.74687839 330.17464041 -147.30708572 330.85804759 -149.86523438 331.55615234 C-150.88910248 331.83424995 -150.88910248 331.83424995 -151.93365479 332.1179657 C-153.84887334 332.63957579 -155.7628534 333.16572712 -157.67675781 333.69213867 C-160.75 334.4375 -160.75 334.4375 -163.75 334.4375 C-163.0885259 327.36745866 -161.39230964 320.72556931 -159.5625 313.875 C-159.24861328 312.68334229 -158.93472656 311.49168457 -158.61132812 310.26391602 C-157.96754465 307.81997738 -157.32187808 305.37653401 -156.67431641 302.93359375 C-155.84075742 299.78077689 -155.01677041 296.62574898 -154.19921875 293.46875 C-153.83703247 292.07172852 -153.83703247 292.07172852 -153.4675293 290.64648438 C-152.98993088 288.80174221 -152.51352715 286.95669032 -152.03833008 285.11132812 C-150.67786694 279.865331 -149.24716218 274.64625815 -147.75 269.4375 C-147.41742188 268.26131104 -147.08484375 267.08512207 -146.7421875 265.87329102 C-146.09490148 263.59106627 -145.43404974 261.31263281 -144.7578125 259.03881836 C-142.58529415 251.64070124 -142.58529415 251.64070124 -144.75 244.4375 C-145.48283203 242.99697266 -145.48283203 242.99697266 -146.23046875 241.52734375 C-146.79378906 240.48707031 -147.35710937 239.44679688 -147.9375 238.375 C-159.17271254 216.63556203 -163.93795165 192.32548945 -163.93530273 168.05615234 C-163.93747501 165.83801656 -163.95564539 163.62039109 -163.97460938 161.40234375 C-164.02832638 148.24799219 -162.73693223 135.53373329 -159.1875 122.8125 C-158.80223145 121.42671753 -158.80223145 121.42671753 -158.40917969 120.01293945 C-150.49988619 92.76750475 -136.04942035 69.96802783 -116.75 49.4375 C-116.17636719 48.79941406 -115.60273438 48.16132813 -115.01171875 47.50390625 C-95.14988492 26.32088613 -66.69358148 11.93237733 -38.875 4.8125 C-38.07280029 4.6060083 -37.27060059 4.3995166 -36.4440918 4.18676758 C-24.33956632 1.20157495 -12.46058691 -0.00072659 0 0 Z " fill="#26E54C" transform="translate(254.75,86.5625)"/>
<path d="M0 0 C0.71355652 -0.00173218 1.42711304 -0.00346436 2.16229248 -0.00524902 C15.97554028 0.00934906 28.85499711 2.036683 42.25 5.4375 C43.72063518 5.77786126 45.19193162 6.11538602 46.6640625 6.44921875 C55.07243433 8.47853048 62.53380594 11.57049281 70.25 15.4375 C71.56421485 16.06696428 72.8793608 16.69448738 74.1953125 17.3203125 C112.81349508 35.87763895 143.50667061 69.92450064 157.75 110.4375 C158.63257592 113.09055203 159.45324826 115.75757824 160.25 118.4375 C160.63671875 119.69691406 161.0234375 120.95632812 161.421875 122.25390625 C172.41398085 160.44749142 167.80073248 206.30093686 149.25 241.4375 C140.66445465 256.93559708 130.44845487 270.62069027 118.25 283.4375 C117.37794922 284.38882813 117.37794922 284.38882813 116.48828125 285.359375 C94.2685795 308.86636426 61.65733417 323.59697357 30.25 329.4375 C29.16203125 329.64246094 28.0740625 329.84742188 26.953125 330.05859375 C5.54021662 333.39000117 -16.73592635 332.63655014 -37.75 327.4375 C-38.50522949 327.25558105 -39.26045898 327.07366211 -40.03857422 326.88623047 C-49.3399337 324.58403599 -57.96744658 321.27178526 -66.60058594 317.11621094 C-67.3021582 316.78395508 -68.00373047 316.45169922 -68.7265625 316.109375 C-69.33580566 315.8112793 -69.94504883 315.51318359 -70.57275391 315.20605469 C-76.42984898 313.13853559 -81.07605257 313.43443085 -87 315.02734375 C-87.68310242 315.20687592 -88.36620483 315.38640808 -89.07000732 315.57138062 C-91.30012053 316.16038951 -93.52482638 316.76762358 -95.75 317.375 C-97.30856177 317.79000056 -98.86748702 318.20363824 -100.42675781 318.6159668 C-103.627875 319.46379597 -106.827202 320.31795041 -110.02539062 321.17675781 C-114.48417962 322.37092156 -118.95076213 323.53262039 -123.421875 324.6796875 C-124.45290344 324.94420464 -124.45290344 324.94420464 -125.50476074 325.21406555 C-126.85420289 325.5599703 -128.20368924 325.90570271 -129.55322266 326.25125122 C-132.61440707 327.03550217 -135.67455829 327.82371221 -138.734375 328.61328125 C-139.87197266 328.9067041 -141.00957031 329.20012695 -142.18164062 329.50244141 C-144.74687839 330.17464041 -147.30708572 330.85804759 -149.86523438 331.55615234 C-150.88910248 331.83424995 -150.88910248 331.83424995 -151.93365479 332.1179657 C-153.84887334 332.63957579 -155.7628534 333.16572712 -157.67675781 333.69213867 C-160.75 334.4375 -160.75 334.4375 -163.75 334.4375 C-163.0885259 327.36745866 -161.39230964 320.72556931 -159.5625 313.875 C-159.24861328 312.68334229 -158.93472656 311.49168457 -158.61132812 310.26391602 C-157.96754465 307.81997738 -157.32187808 305.37653401 -156.67431641 302.93359375 C-155.84075742 299.78077689 -155.01677041 296.62574898 -154.19921875 293.46875 C-153.83703247 292.07172852 -153.83703247 292.07172852 -153.4675293 290.64648438 C-152.98993088 288.80174221 -152.51352715 286.95669032 -152.03833008 285.11132812 C-150.67786694 279.865331 -149.24716218 274.64625815 -147.75 269.4375 C-147.41742188 268.26131104 -147.08484375 267.08512207 -146.7421875 265.87329102 C-146.09490148 263.59106627 -145.43404974 261.31263281 -144.7578125 259.03881836 C-142.58529415 251.64070124 -142.58529415 251.64070124 -144.75 244.4375 C-145.48283203 242.99697266 -145.48283203 242.99697266 -146.23046875 241.52734375 C-146.79378906 240.48707031 -147.35710937 239.44679688 -147.9375 238.375 C-159.17271254 216.63556203 -163.93795165 192.32548945 -163.93530273 168.05615234 C-163.93747501 165.83801656 -163.95564539 163.62039109 -163.97460938 161.40234375 C-164.02832638 148.24799219 -162.73693223 135.53373329 -159.1875 122.8125 C-158.80223145 121.42671753 -158.80223145 121.42671753 -158.40917969 120.01293945 C-150.49988619 92.76750475 -136.04942035 69.96802783 -116.75 49.4375 C-116.17636719 48.79941406 -115.60273438 48.16132813 -115.01171875 47.50390625 C-95.14988492 26.32088613 -66.69358148 11.93237733 -38.875 4.8125 C-38.07280029 4.6060083 -37.27060059 4.3995166 -36.4440918 4.18676758 C-24.33956632 1.20157495 -12.46058691 -0.00072659 0 0 Z M-89.75 62.4375 C-90.56082031 63.10136719 -91.37164062 63.76523438 -92.20703125 64.44921875 C-111.16836241 80.60367569 -124.96090836 104.6591205 -131.75 128.4375 C-132.02457031 129.36304688 -132.29914063 130.28859375 -132.58203125 131.2421875 C-142.97956625 169.04209306 -134.37519282 205.89960277 -115.87573242 239.48657227 C-114.90030029 241.17702513 -113.83260352 242.81359472 -112.75 244.4375 C-113.02588546 252.30441563 -115.19132335 259.86673329 -117.13354492 267.45874023 C-117.68855471 269.62912449 -118.23463867 271.80160674 -118.77929688 273.97460938 C-121.50864742 284.78314086 -121.50864742 284.78314086 -122.93188477 288.6418457 C-123.76375719 291.48451093 -123.79528556 292.71975755 -122.75 295.4375 C-118.46696274 294.37303528 -114.18435586 293.30685895 -109.90209961 292.23925781 C-108.45266565 291.87813768 -107.00312542 291.51744376 -105.5534668 291.15722656 C-103.44029398 290.63205067 -101.32756631 290.10510892 -99.21484375 289.578125 C-98.51322113 289.40438354 -97.81159851 289.23064209 -97.0887146 289.05163574 C-93.55990121 288.17099122 -90.05037065 287.25052082 -86.55517578 286.24414062 C-85.54784142 285.95866364 -85.54784142 285.95866364 -84.52015686 285.66741943 C-82.68454988 285.14312004 -80.85297786 284.60475211 -79.02172852 284.06542969 C-74.226901 283.14517774 -70.36713975 283.75544704 -66.18359375 286.2578125 C-65.54421875 286.62503418 -64.90484375 286.99225586 -64.24609375 287.37060547 C-63.22708984 287.96059326 -63.22708984 287.96059326 -62.1875 288.5625 C-52.47212869 293.92011532 -42.41479764 297.45637839 -31.75 300.4375 C-31.07130859 300.63102051 -30.39261719 300.82454102 -29.69335938 301.02392578 C-7.77085423 306.93351973 18.85059058 305.11124417 40.25 298.4375 C41.00619629 298.21288086 41.76239258 297.98826172 42.54150391 297.75683594 C75.55177836 287.81685849 104.49102568 264.60217981 121.25 234.4375 C139.64207879 199.71465482 144.49940905 162.38594518 132.94921875 124.59375 C122.17408712 90.96887299 98.53482459 61.0640814 67.03515625 44.65234375 C14.21866179 18.24887889 -44.531892 24.35526089 -89.75 62.4375 Z " fill="#FDFEFD" transform="translate(254.75,86.5625)"/>
<path d="M0 0 C1.9765625 -0.30078125 1.9765625 -0.30078125 5.7890625 0.63671875 C9.06644858 3.88740514 11.38931393 7.72351041 13.7890625 11.63671875 C14.63812788 12.98642959 15.48844208 14.33535544 16.33984375 15.68359375 C17.63786436 17.74552123 18.92964635 19.80999111 20.20068359 21.88867188 C22.20688827 25.16752419 24.26954582 28.33921171 26.546875 31.4375 C28.7890625 34.63671875 28.7890625 34.63671875 29.4765625 37.57421875 C27.85450736 44.7997371 22.06516459 49.43883079 16.62890625 54.05078125 C14.26428099 56.08907818 12.38154787 57.93641748 10.7890625 60.63671875 C10.93773061 66.53971732 13.92900492 70.30458934 17.2890625 74.88671875 C17.83006592 75.63743652 18.37106934 76.3881543 18.9284668 77.16162109 C23.20544643 83.0179195 27.74326637 88.42239897 32.7890625 93.63671875 C33.31113281 94.23226562 33.83320313 94.8278125 34.37109375 95.44140625 C42.07590086 103.90694115 52.87377951 109.75558819 62.7890625 115.26171875 C63.3871875 115.60452881 63.9853125 115.94733887 64.6015625 116.30053711 C68.79966667 118.55010716 72.06121454 119.25510552 76.7890625 118.63671875 C78.88506406 117.24423105 78.88506406 117.24423105 80.3515625 115.13671875 C80.92648437 114.4096875 81.50140625 113.68265625 82.09375 112.93359375 C82.65320313 112.175625 83.21265625 111.41765625 83.7890625 110.63671875 C84.32789063 109.92 84.86671875 109.20328125 85.421875 108.46484375 C86.4349335 107.11070526 87.44795611 105.75653992 88.4609375 104.40234375 C92.66976486 98.80707914 92.66976486 98.80707914 96.71484375 98.19140625 C102.40813694 98.32399685 107.17819441 101.58095317 112.0390625 104.26171875 C113.01230469 104.78378906 113.98554688 105.30585938 114.98828125 105.84375 C116.9449784 106.89615683 118.89750205 107.95636143 120.84570312 109.02441406 C122.85971743 110.12764486 124.87957254 111.22026127 126.90429688 112.30371094 C127.89236328 112.83383789 128.88042969 113.36396484 129.8984375 113.91015625 C130.79014648 114.38630371 131.68185547 114.86245117 132.60058594 115.35302734 C134.7890625 116.63671875 134.7890625 116.63671875 136.7890625 118.63671875 C137.39912401 126.32349373 136.82433987 134.50418148 132.125 140.90234375 C130.11879897 142.99646594 128.05505062 144.82790367 125.7890625 146.63671875 C125.09554687 147.19230469 124.40203125 147.74789062 123.6875 148.3203125 C113.3708993 155.84205228 101.36511259 158.50067804 88.7890625 156.63671875 C57.15351778 150.06317148 33.16259677 134.36312477 9.7890625 112.63671875 C9.12390625 112.02570313 8.45875 111.4146875 7.7734375 110.78515625 C-10.96260076 92.88690832 -28.58942047 64.51870191 -29.6484375 38.13671875 C-29.33089411 27.04916216 -25.06141167 17.29594598 -18.2109375 8.63671875 C-12.81440653 3.733988 -6.8787599 1.98098562 0 0 Z " fill="#FDFEFD" transform="translate(202.2109375,175.36328125)"/>
</svg>
